<svg xmlns="http://www.w3.org/2000/svg" xmlns:xlink="http://www.w3.org/1999/xlink" version="1.1"
    x="0px" y="0px" viewBox="0 0 1200 1500" style="enable-background:new 0 0 1200 1200;"
    xml:space="preserve"><g><g><path d="M672.9,723.4l-23.3-8.9c24-62.5,46.2-129.6,46.2-196.6c0-131.2-28.5-237.4-52.5-303.3c-15.9-43.9-32-76.3-42.1-94.9    c-10.1,18.6-26.1,51-42.1,94.8c-23.9,65.9-52.4,172.1-52.4,303.3c0,74.5,24.2,151.9,38.7,191.4l-23.5,8.6    c-15-41.1-40.2-121.6-40.2-200c0-135.3,29.5-244.7,54.3-312.7c26.9-74,53.6-115.5,54.8-117.2l10.5-16.1l10.5,16.1    c1.1,1.7,27.9,43.2,54.8,117.2c24.8,68,54.3,177.4,54.3,312.7C720.8,588.8,697.8,658.6,672.9,723.4z"/></g><g><path d="M609.4,861.7l-24.3-6c0.4-1.5,9.1-36.5,31.7-83.4c20.9-43.3,58-105.1,116.5-154.1c82.3-68.8,163.8-106.6,217.8-126.1    c58.8-21.3,97.7-26.2,99.4-26.4l19.1-2.3l-5.6,18.4c-0.5,1.6-12.2,39.1-43.5,93.2c-28.7,49.7-80.3,123.3-162.5,192.1    c-5.3,4.5-10.9,8.9-16.6,13.1l-15-20c5.3-4,10.5-8.1,15.5-12.3c79.1-66.2,128.8-137,156.5-184.7c16.8-28.9,27.8-53.1,34.2-68.9    c-16.7,3.6-42.4,10.1-73.8,21.6c-51.8,18.9-130.3,55.3-209.4,121.5c-54.9,45.9-90,104.3-109.8,145.2    C618,827.2,609.5,861.3,609.4,861.7z"/></g><g><path d="M820.1,925.3c-0.2,0-0.4,0-0.6,0c-23.3,0-47.4-2.6-71.7-7.7l5.2-24.5c22.5,4.8,44.9,7.2,66.5,7.2c0.2,0,0.4,0,0.6,0    c86.5,0,156.5-18.7,200-34.5c24.3-8.8,43.3-17.6,56.1-24.2c-12.8-6.6-31.7-15.5-56-24.3c-43.6-15.8-113.8-34.7-200.6-34.8    c-0.1,0-0.2,0-0.3,0c-115.5,0-209.8,68.1-210.7,68.8l-14.8-20.2c1-0.8,25.9-18.8,66-37c37.1-16.7,94.8-36.7,159.4-36.7    c0.1,0,0.2,0,0.3,0c90.8,0.1,164.3,20,209.9,36.6c49.8,18.2,77.8,36.3,79,37l16.1,10.5l-16.1,10.5c-1.2,0.8-29.3,18.8-79.1,36.9    C983.9,905.6,910.6,925.3,820.1,925.3z"/></g><g><path d="M850.1,1033l-19.2-1.5c-3.3-0.3-80.6-7.2-162-69.9c-58.4-45-78.8-114-79.6-116.9l-4.7-16.4l17,0.4    c3,0.1,75,2.3,133.3,47.2c81.4,62.7,107.8,135.8,108.8,138.9L850.1,1033z M620,855.7c9.4,21.9,29.4,59.3,64.1,86.1    c50.3,38.8,99.2,54.6,126.5,60.9c-13.1-24.9-40.9-68.2-91-106.9C684.9,869.1,643.6,859.3,620,855.7z"/></g><g><g><path d="M589.1,861.7c-0.1-0.3-8.6-34.4-30.2-79.1c-19.8-40.9-54.8-99.2-109.8-145.2C369.7,571,291,534.5,238.9,515.7     c-31.1-11.3-56.5-17.7-73-21.3c6.5,15.8,17.4,40,34.2,68.9C227.9,611,277.5,681.8,356.7,748c5.3,4.5,10.9,8.8,16.6,13.1     l-14.9,20.1c-6.1-4.5-12-9.2-17.7-14C258.4,698.3,206.8,624.7,178.1,575c-31.3-54.1-43-91.6-43.5-93.2l-5.6-18.4l19.1,2.3     c1.6,0.2,40.6,5.1,99.4,26.4c53.9,19.5,135.5,57.3,217.8,126.1c32.3,27,78.7,75.7,116.5,154.1c22.6,46.8,31.3,81.9,31.7,83.4     L589.1,861.7z"/></g><g><path d="M378.4,925.3c-90.5,0-163.8-19.7-209.4-36.3C119.2,871,91.1,853,89.9,852.2l-16.1-10.5l16.1-10.5     c1.2-0.8,29.2-18.9,79-37c45.6-16.7,119.1-36.6,209.9-36.6c0.1,0,0.2,0,0.3,0c64.6,0,122.4,19.9,159.4,36.7     c40.2,18.1,65,36.2,66,37l-14.8,20.2c-0.2-0.2-24.2-17.5-62.2-34.6c-34.7-15.6-88.6-34.2-148.5-34.2c-0.1,0-0.2,0-0.3,0     c-86.8,0.1-157,19-200.6,34.8c-24.3,8.8-43.3,17.7-56,24.3c12.8,6.6,31.8,15.4,56.1,24.2c43.5,15.7,113.5,34.5,200,34.5     c0.2,0,0.4,0,0.6,0c21.6,0,44-2.4,66.5-7.2l5.2,24.5c-24.2,5.1-48.3,7.7-71.7,7.7C378.8,925.3,378.6,925.3,378.4,925.3z"/></g><g><path d="M348.4,1033l6.4-18.2c1.1-3.1,27.5-76.1,108.8-138.9c58.4-45,130.3-47.2,133.3-47.2l17-0.4l-4.7,16.4     c-0.8,2.9-21.3,71.9-79.6,116.9c-81.4,62.7-158.8,69.6-162,69.9L348.4,1033z M578.5,855.7c-23.6,3.5-64.9,13.3-99.6,40.1     c-50,38.6-77.9,81.9-91,106.8c27.4-6.3,76.4-22.2,126.5-60.8C549.2,914.9,569.1,877.6,578.5,855.7z"/></g></g><g><rect x="588.7" y="845.1" width="25" height="261.4"/></g></g>
</svg>